<mxfile host="app.diagrams.net" modified="2021-09-11T07:43:13.006Z" agent="5.0 (Windows NT 10.0; Win64; x64) AppleWebKit/537.36 (KHTML, like Gecko) Chrome/93.0.4577.63 Safari/537.36" etag="LhUAorIjhJgqoBFpGJZL" version="15.0.6" type="github">
  <diagram id="01O5uSKKgzHhrHDsLZxM" name="Page-1">
    <mxGraphModel dx="1038" dy="579" grid="1" gridSize="10" guides="1" tooltips="1" connect="1" arrows="1" fold="1" page="1" pageScale="1" pageWidth="827" pageHeight="1169" math="0" shadow="0">
      <root>
        <mxCell id="0" />
        <mxCell id="1" parent="0" />
        <mxCell id="jqa-2G00oBbrcwfLRXYl-14" value="" style="rounded=0;whiteSpace=wrap;html=1;" parent="1" vertex="1">
          <mxGeometry x="290" y="50" width="370" height="850" as="geometry" />
        </mxCell>
        <mxCell id="jqa-2G00oBbrcwfLRXYl-2" value="Khách hàng" style="shape=umlActor;verticalLabelPosition=bottom;verticalAlign=top;html=1;outlineConnect=0;" parent="1" vertex="1">
          <mxGeometry x="70" y="445" width="30" height="60" as="geometry" />
        </mxCell>
        <mxCell id="jqa-2G00oBbrcwfLRXYl-3" value="" style="endArrow=classic;html=1;entryX=0;entryY=0.5;entryDx=0;entryDy=0;" parent="1" edge="1">
          <mxGeometry width="50" height="50" relative="1" as="geometry">
            <mxPoint x="120" y="480" as="sourcePoint" />
            <mxPoint x="330" y="115" as="targetPoint" />
          </mxGeometry>
        </mxCell>
        <mxCell id="jqa-2G00oBbrcwfLRXYl-9" value="" style="endArrow=classic;html=1;entryX=0;entryY=0.5;entryDx=0;entryDy=0;" parent="1" edge="1">
          <mxGeometry width="50" height="50" relative="1" as="geometry">
            <mxPoint x="120" y="480" as="sourcePoint" />
            <mxPoint x="330" y="195" as="targetPoint" />
          </mxGeometry>
        </mxCell>
        <mxCell id="jqa-2G00oBbrcwfLRXYl-21" value="" style="endArrow=classic;html=1;entryX=0;entryY=0.5;entryDx=0;entryDy=0;" parent="1" edge="1">
          <mxGeometry width="50" height="50" relative="1" as="geometry">
            <mxPoint x="120" y="480" as="sourcePoint" />
            <mxPoint x="330" y="355" as="targetPoint" />
          </mxGeometry>
        </mxCell>
        <mxCell id="jqa-2G00oBbrcwfLRXYl-22" value="" style="endArrow=classic;html=1;entryX=0;entryY=0.5;entryDx=0;entryDy=0;" parent="1" target="bpFIh0Sjr498-v55LHdx-5" edge="1">
          <mxGeometry width="50" height="50" relative="1" as="geometry">
            <mxPoint x="120" y="480" as="sourcePoint" />
            <mxPoint x="330" y="435" as="targetPoint" />
          </mxGeometry>
        </mxCell>
        <mxCell id="jqa-2G00oBbrcwfLRXYl-23" value="" style="endArrow=classic;html=1;entryX=0;entryY=0.5;entryDx=0;entryDy=0;" parent="1" target="bpFIh0Sjr498-v55LHdx-7" edge="1">
          <mxGeometry width="50" height="50" relative="1" as="geometry">
            <mxPoint x="120" y="480" as="sourcePoint" />
            <mxPoint x="330" y="515" as="targetPoint" />
          </mxGeometry>
        </mxCell>
        <mxCell id="jqa-2G00oBbrcwfLRXYl-26" value="" style="endArrow=classic;html=1;entryX=0;entryY=0.5;entryDx=0;entryDy=0;" parent="1" target="bpFIh0Sjr498-v55LHdx-8" edge="1">
          <mxGeometry width="50" height="50" relative="1" as="geometry">
            <mxPoint x="120" y="480" as="sourcePoint" />
            <mxPoint x="330" y="675" as="targetPoint" />
          </mxGeometry>
        </mxCell>
        <mxCell id="jqa-2G00oBbrcwfLRXYl-27" value="" style="endArrow=classic;html=1;entryX=0;entryY=0.5;entryDx=0;entryDy=0;" parent="1" target="bpFIh0Sjr498-v55LHdx-9" edge="1">
          <mxGeometry width="50" height="50" relative="1" as="geometry">
            <mxPoint x="120" y="480" as="sourcePoint" />
            <mxPoint x="330" y="755" as="targetPoint" />
          </mxGeometry>
        </mxCell>
        <mxCell id="jqa-2G00oBbrcwfLRXYl-28" value="" style="endArrow=classic;html=1;entryX=0;entryY=0.5;entryDx=0;entryDy=0;" parent="1" target="bpFIh0Sjr498-v55LHdx-10" edge="1">
          <mxGeometry width="50" height="50" relative="1" as="geometry">
            <mxPoint x="120" y="480" as="sourcePoint" />
            <mxPoint x="330" y="835" as="targetPoint" />
          </mxGeometry>
        </mxCell>
        <mxCell id="jqa-2G00oBbrcwfLRXYl-46" value="Use case Khách hàng" style="text;align=center;fontStyle=1;verticalAlign=middle;spacingLeft=3;spacingRight=3;strokeColor=none;rotatable=0;points=[[0,0.5],[1,0.5]];portConstraint=eastwest;" parent="1" vertex="1">
          <mxGeometry x="300" y="10" width="80" height="26" as="geometry" />
        </mxCell>
        <mxCell id="bpFIh0Sjr498-v55LHdx-3" value="Đăng ký" style="ellipse;whiteSpace=wrap;html=1;" vertex="1" parent="1">
          <mxGeometry x="330" y="80" width="100" height="70" as="geometry" />
        </mxCell>
        <mxCell id="bpFIh0Sjr498-v55LHdx-4" value="Đăng nhập" style="ellipse;whiteSpace=wrap;html=1;" vertex="1" parent="1">
          <mxGeometry x="330" y="160" width="100" height="70" as="geometry" />
        </mxCell>
        <mxCell id="bpFIh0Sjr498-v55LHdx-5" value="Xem Trang &lt;br&gt;chủ đề" style="ellipse;whiteSpace=wrap;html=1;" vertex="1" parent="1">
          <mxGeometry x="330" y="400" width="100" height="70" as="geometry" />
        </mxCell>
        <mxCell id="bpFIh0Sjr498-v55LHdx-6" value="Xem Trang chủ" style="ellipse;whiteSpace=wrap;html=1;" vertex="1" parent="1">
          <mxGeometry x="330" y="320" width="100" height="70" as="geometry" />
        </mxCell>
        <mxCell id="bpFIh0Sjr498-v55LHdx-7" value="Xem Trang khuyến mãi" style="ellipse;whiteSpace=wrap;html=1;" vertex="1" parent="1">
          <mxGeometry x="330" y="500" width="100" height="70" as="geometry" />
        </mxCell>
        <mxCell id="bpFIh0Sjr498-v55LHdx-8" value="Xem Trang Blog của khách hàng" style="ellipse;whiteSpace=wrap;html=1;" vertex="1" parent="1">
          <mxGeometry x="330" y="630" width="100" height="70" as="geometry" />
        </mxCell>
        <mxCell id="bpFIh0Sjr498-v55LHdx-9" value="Xem Trang giới thiệu" style="ellipse;whiteSpace=wrap;html=1;" vertex="1" parent="1">
          <mxGeometry x="330" y="740" width="100" height="70" as="geometry" />
        </mxCell>
        <mxCell id="bpFIh0Sjr498-v55LHdx-10" value="Liên hệ" style="ellipse;whiteSpace=wrap;html=1;" vertex="1" parent="1">
          <mxGeometry x="330" y="820" width="100" height="70" as="geometry" />
        </mxCell>
        <mxCell id="bpFIh0Sjr498-v55LHdx-11" value="Thêm bình luận" style="ellipse;whiteSpace=wrap;html=1;" vertex="1" parent="1">
          <mxGeometry x="500" y="60" width="100" height="50" as="geometry" />
        </mxCell>
        <mxCell id="bpFIh0Sjr498-v55LHdx-12" value="Đăng tải Blogs" style="ellipse;whiteSpace=wrap;html=1;" vertex="1" parent="1">
          <mxGeometry x="500" y="120" width="100" height="50" as="geometry" />
        </mxCell>
        <mxCell id="bpFIh0Sjr498-v55LHdx-13" value="Giao tiếp với Admin" style="ellipse;whiteSpace=wrap;html=1;" vertex="1" parent="1">
          <mxGeometry x="500" y="180" width="100" height="50" as="geometry" />
        </mxCell>
        <mxCell id="bpFIh0Sjr498-v55LHdx-14" value="Phản hồi với Công ty chủ quản" style="ellipse;whiteSpace=wrap;html=1;" vertex="1" parent="1">
          <mxGeometry x="500" y="240" width="100" height="60" as="geometry" />
        </mxCell>
        <mxCell id="bpFIh0Sjr498-v55LHdx-15" value="Lọc theo vùng miền, khuyến mãi" style="ellipse;whiteSpace=wrap;html=1;" vertex="1" parent="1">
          <mxGeometry x="500" y="470" width="100" height="60" as="geometry" />
        </mxCell>
        <mxCell id="bpFIh0Sjr498-v55LHdx-16" value="Xem nội dung&amp;nbsp;&lt;br&gt;Blogs" style="ellipse;whiteSpace=wrap;html=1;" vertex="1" parent="1">
          <mxGeometry x="500" y="600" width="100" height="60" as="geometry" />
        </mxCell>
        <mxCell id="bpFIh0Sjr498-v55LHdx-17" value="Xem chi tiết Tour" style="ellipse;whiteSpace=wrap;html=1;" vertex="1" parent="1">
          <mxGeometry x="500" y="410" width="100" height="50" as="geometry" />
        </mxCell>
        <mxCell id="bpFIh0Sjr498-v55LHdx-18" value="Phản hồi nhanh" style="ellipse;whiteSpace=wrap;html=1;" vertex="1" parent="1">
          <mxGeometry x="500" y="825" width="100" height="60" as="geometry" />
        </mxCell>
        <mxCell id="bpFIh0Sjr498-v55LHdx-19" value="Xem chi tiết Tour" style="ellipse;whiteSpace=wrap;html=1;" vertex="1" parent="1">
          <mxGeometry x="500" y="540" width="100" height="50" as="geometry" />
        </mxCell>
        <mxCell id="bpFIh0Sjr498-v55LHdx-20" value="Tạo bài blog mới" style="ellipse;whiteSpace=wrap;html=1;" vertex="1" parent="1">
          <mxGeometry x="500" y="670" width="100" height="60" as="geometry" />
        </mxCell>
        <mxCell id="bpFIh0Sjr498-v55LHdx-21" value="Đăng ký nhận thông báo qua email" style="ellipse;whiteSpace=wrap;html=1;" vertex="1" parent="1">
          <mxGeometry x="500" y="320" width="100" height="70" as="geometry" />
        </mxCell>
        <mxCell id="bpFIh0Sjr498-v55LHdx-22" value="Include" style="endArrow=open;endSize=12;dashed=1;html=1;entryX=1;entryY=0;entryDx=0;entryDy=0;exitX=0;exitY=0.5;exitDx=0;exitDy=0;" edge="1" parent="1">
          <mxGeometry x="-0.0625" width="160" relative="1" as="geometry">
            <mxPoint x="500" y="84.99999999999989" as="sourcePoint" />
            <mxPoint x="415.67240803047844" y="170.4752194790458" as="targetPoint" />
            <mxPoint as="offset" />
          </mxGeometry>
        </mxCell>
        <mxCell id="bpFIh0Sjr498-v55LHdx-23" value="Include" style="endArrow=open;endSize=12;dashed=1;html=1;entryX=1;entryY=0.5;entryDx=0;entryDy=0;exitX=0;exitY=0.5;exitDx=0;exitDy=0;" edge="1" parent="1">
          <mxGeometry x="-0.0625" width="160" relative="1" as="geometry">
            <mxPoint x="500" y="145" as="sourcePoint" />
            <mxPoint x="429.9999999999998" y="195" as="targetPoint" />
            <mxPoint as="offset" />
          </mxGeometry>
        </mxCell>
        <mxCell id="bpFIh0Sjr498-v55LHdx-24" value="Include" style="endArrow=open;endSize=12;dashed=1;html=1;exitX=0;exitY=0.5;exitDx=0;exitDy=0;entryX=1;entryY=0.5;entryDx=0;entryDy=0;" edge="1" parent="1" target="bpFIh0Sjr498-v55LHdx-4">
          <mxGeometry x="-0.0625" width="160" relative="1" as="geometry">
            <mxPoint x="500" y="205" as="sourcePoint" />
            <mxPoint x="426" y="210.19000000000005" as="targetPoint" />
            <mxPoint as="offset" />
          </mxGeometry>
        </mxCell>
        <mxCell id="bpFIh0Sjr498-v55LHdx-25" value="Include" style="endArrow=open;endSize=12;dashed=1;html=1;exitX=0;exitY=0.5;exitDx=0;exitDy=0;" edge="1" parent="1">
          <mxGeometry x="-0.0625" width="160" relative="1" as="geometry">
            <mxPoint x="500" y="270" as="sourcePoint" />
            <mxPoint x="417.5520436717561" y="218.1089499518498" as="targetPoint" />
            <mxPoint as="offset" />
          </mxGeometry>
        </mxCell>
        <mxCell id="bpFIh0Sjr498-v55LHdx-26" value="Extends" style="endArrow=block;endSize=16;endFill=0;html=1;exitX=1;exitY=0.5;exitDx=0;exitDy=0;entryX=0;entryY=0.5;entryDx=0;entryDy=0;" edge="1" parent="1">
          <mxGeometry width="160" relative="1" as="geometry">
            <mxPoint x="429.9999999999998" y="665" as="sourcePoint" />
            <mxPoint x="500" y="630" as="targetPoint" />
          </mxGeometry>
        </mxCell>
        <mxCell id="bpFIh0Sjr498-v55LHdx-27" value="Extends" style="endArrow=block;endSize=16;endFill=0;html=1;" edge="1" parent="1">
          <mxGeometry width="160" relative="1" as="geometry">
            <mxPoint x="429.9999999999998" y="854.5000000000005" as="sourcePoint" />
            <mxPoint x="500" y="855" as="targetPoint" />
          </mxGeometry>
        </mxCell>
        <mxCell id="bpFIh0Sjr498-v55LHdx-28" value="Extends" style="endArrow=block;endSize=16;endFill=0;html=1;entryX=0;entryY=0.5;entryDx=0;entryDy=0;exitX=1;exitY=0.5;exitDx=0;exitDy=0;" edge="1" parent="1">
          <mxGeometry width="160" relative="1" as="geometry">
            <mxPoint x="429.9999999999998" y="535" as="sourcePoint" />
            <mxPoint x="500" y="500" as="targetPoint" />
          </mxGeometry>
        </mxCell>
        <mxCell id="bpFIh0Sjr498-v55LHdx-29" value="Extends" style="endArrow=block;endSize=16;endFill=0;html=1;entryX=0;entryY=0.5;entryDx=0;entryDy=0;" edge="1" parent="1">
          <mxGeometry width="160" relative="1" as="geometry">
            <mxPoint x="429.9999999999998" y="434.5000000000002" as="sourcePoint" />
            <mxPoint x="500" y="435" as="targetPoint" />
          </mxGeometry>
        </mxCell>
        <mxCell id="bpFIh0Sjr498-v55LHdx-30" value="Extends" style="endArrow=block;endSize=16;endFill=0;html=1;entryX=0;entryY=0.5;entryDx=0;entryDy=0;exitX=1;exitY=0.5;exitDx=0;exitDy=0;" edge="1" parent="1">
          <mxGeometry width="160" relative="1" as="geometry">
            <mxPoint x="429.9999999999998" y="535" as="sourcePoint" />
            <mxPoint x="500" y="565" as="targetPoint" />
          </mxGeometry>
        </mxCell>
        <mxCell id="bpFIh0Sjr498-v55LHdx-31" value="Extends" style="endArrow=block;endSize=16;endFill=0;html=1;exitX=1;exitY=0.5;exitDx=0;exitDy=0;entryX=0;entryY=0.5;entryDx=0;entryDy=0;" edge="1" parent="1">
          <mxGeometry width="160" relative="1" as="geometry">
            <mxPoint x="429.9999999999998" y="665" as="sourcePoint" />
            <mxPoint x="500" y="700" as="targetPoint" />
          </mxGeometry>
        </mxCell>
        <mxCell id="bpFIh0Sjr498-v55LHdx-32" value="Extends" style="endArrow=block;endSize=16;endFill=0;html=1;entryX=0;entryY=0.5;entryDx=0;entryDy=0;" edge="1" parent="1">
          <mxGeometry width="160" relative="1" as="geometry">
            <mxPoint x="429.9999999999998" y="354.5000000000002" as="sourcePoint" />
            <mxPoint x="500" y="355" as="targetPoint" />
          </mxGeometry>
        </mxCell>
      </root>
    </mxGraphModel>
  </diagram>
</mxfile>
